{"title":"It's a Mad, Mad, Mad World (1987).avi","uid":14157983,"size":1248508224,"categoryP":"video","categoryS":"movies","magnet":"?xt=urn:btih:7c33d6708c0661934343e3c1fa442f6fe3c60b5d&amp;dn=It%27s+a+Mad%2C+Mad%2C+Mad+World+%281987%29.avi&amp;tr=udp%3A%2F%2Ftracker.leechers-paradise.org%3A6969&amp;tr=udp%3A%2F%2Fzer0day.ch%3A1337&amp;tr=udp%3A%2F%2Fopen.demonii.com%3A1337&amp;tr=udp%3A%2F%2Ftracker.coppersurfer.tk%3A6969&amp;tr=udp%3A%2F%2Fexodus.desync.com%3A6969","seeders":0,"leechers":0,"uploader":null,"files":1,"time":1459685873,"description":"Bill, a TV news reporter, tries to make ends meet to support himself, his wife and three daughters in urban Hong Kong. In the mist of the misadventures of Bill and his family, their luck and lives ultimately change when Bill's wife suddenly wins the lottery.\r\n\r\n\r\n\r\nFormat                                   : AVI\r\nFormat/Info                              : Audio Video Interleave\r\nFormat profile                           : OpenDML\r\nFile size                                : 1.16 GiB\r\nDuration                                 : 1h 30mn\r\nOverall bit rate                         : 1 833 Kbps\r\nWriting application                      : Lavf51.12.1\r\n\r\nVideo\r\nID                                       : 0\r\nFormat                                   : MPEG-4 Visual\r\nCodec ID                                 : DIV3\r\nCodec ID/Hint                            : DivX 3 Low\r\nDuration                                 : 1h 30mn\r\nBit rate                                 : 1 498 Kbps\r\nWidth                                    : 720 pixels\r\nHeight                                   : 400 pixels\r\nDisplay aspect ratio                     : 16:9\r\nFrame rate                               : 24.390 fps\r\nColor space                              : YUV\r\nChroma subsampling                       : 4:2:0\r\nBit depth                                : 8 bits\r\nCompression mode                         : Lossy\r\nBits/(Pixel*Frame)                       : 0.213\r\nStream size                              : 973 MiB (82%)\r\n\r\nAudio\r\nID                                       : 1\r\nFormat                                   : MPEG Audio\r\nFormat version                           : Version 1\r\nFormat profile                           : Layer 3\r\nMode                                     : Joint stereo\r\nMode extension                           : MS Stereo\r\nCodec ID                                 : 55\r\nCodec ID/Hint                            : MP3\r\nDuration                                 : 1h 30mn\r\nBit rate mode                            : Constant\r\nBit rate                                 : 320 Kbps\r\nChannel(s)                               : 2 channels\r\nSampling rate                            : 44.1 KHz\r\nCompression mode                         : Lossy\r\nStream size                              : 208 MiB (17%)\r\nAlignment                                : Aligned on interleaves\r\nInterleave, duration                     : 26 ms (0.64 video frame)\r\nInterleave, preload duration             : 26 ms\r\nWriting library                          : LAME3.97","torrent":{"xt":"urn:btih:7c33d6708c0661934343e3c1fa442f6fe3c60b5d","amp;dn":"It%27s+a+Mad%2C+Mad%2C+Mad+World+%281987%29.avi","amp;tr":["udp%3A%2F%2Ftracker.leechers-paradise.org%3A6969","udp%3A%2F%2Fzer0day.ch%3A1337","udp%3A%2F%2Fopen.demonii.com%3A1337","udp%3A%2F%2Ftracker.coppersurfer.tk%3A6969","udp%3A%2F%2Fexodus.desync.com%3A6969"],"infoHash":"7c33d6708c0661934343e3c1fa442f6fe3c60b5d","infoHashBuffer":{"type":"Buffer","data":[124,51,214,112,140,6,97,147,67,67,227,193,250,68,47,111,227,198,11,93]},"announce":[],"urlList":[]}}